<svg width="480" height="480" viewBox="0 0 480 480" fill="none" xmlns="http://www.w3.org/2000/svg">
<rect width="480" height="480" fill="#1E1E1E"/>
<rect width="480" height="480" fill="#9DB3BE"/>
<path d="M361.75 472.5C354.25 472.5 346.833 470.333 339.5 466C332.333 461.833 323.167 455.333 312 446.5C303.667 439.833 296.5 434.417 290.5 430.25C284.667 426.25 278.25 422.833 271.25 420C264.417 417.167 257.417 415.75 250.25 415.75C247.75 415.75 245.833 415.833 244.5 416L281.75 242.75C270.583 247.25 261.917 254.167 255.75 263.5C249.75 272.667 246.75 283.917 246.75 297.25C246.75 303.417 247.333 307.75 248.5 310.25C249.667 312.583 250.25 313.917 250.25 314.25C241.25 314.25 234.5 312.417 230 308.75C225.667 304.917 223.5 298.667 223.5 290C223.5 279.333 227.833 269 236.5 259C245.333 248.833 256.583 240.667 270.25 234.5C283.917 228.167 297.583 225 311.25 225C313.583 225 316.917 225.167 321.25 225.5L282.75 405C287.417 406.167 292.167 407.833 297 410C302 412.333 308 415.417 315 419.25C325.833 425.083 335.083 429.5 342.75 432.5C350.417 435.667 358.417 437.25 366.75 437.25C374.25 437.25 381.25 435.917 387.75 433.25C386.417 445.417 383.417 455 378.75 462C374.25 469 368.583 472.5 361.75 472.5Z" fill="#CCA152"/>
<g filter="url(#filter0_d_0_1)">
<path d="M173.625 269.85C159.975 269.85 147.95 267.467 137.55 262.7C127.15 257.933 119.133 251.325 113.5 242.875C107.867 234.208 105.05 224.242 105.05 212.975C105.05 203.442 107 194.775 110.9 186.975C115.017 179.175 120.433 173 127.15 168.45C134.083 163.9 141.667 161.625 149.9 161.625C157.483 161.625 163.875 163.575 169.075 167.475C174.275 171.158 177.525 176.358 178.825 183.075C167.558 183.075 158.567 186.108 151.85 192.175C145.133 198.025 141.775 206.042 141.775 216.225C141.775 225.542 144.592 233.017 150.225 238.65C155.858 244.283 163.333 247.1 172.65 247.1C184.133 247.1 193.558 243.308 200.925 235.725C208.508 227.925 212.3 218.175 212.3 206.475C212.3 196.292 209.483 186.65 203.85 177.55C198.217 168.45 189.767 157.4 178.5 144.4C166.8 130.967 157.917 119.483 151.85 109.95C146 100.2 143.075 89.5833 143.075 78.1C143.075 66.8333 146.217 56.7583 152.5 47.875C158.783 38.775 167.45 31.625 178.5 26.425C189.55 21.225 202.008 18.625 215.875 18.625C233.425 18.625 247.4 22.7417 257.8 30.975C268.417 39.2083 273.725 50.2583 273.725 64.125C273.725 73.225 271.45 80.5917 266.9 86.225C262.35 91.8583 256.392 94.675 249.025 94.675C240.792 94.675 234.183 91.3167 229.2 84.6C233.317 81.5667 236.567 77.5583 238.95 72.575C241.333 67.5917 242.525 62.3917 242.525 56.975C242.525 50.0417 240.467 44.5167 236.35 40.4C232.233 36.2833 226.6 34.225 219.45 34.225C210.783 34.225 203.633 37.3667 198 43.65C192.583 49.7167 189.875 57.5167 189.875 67.05C189.875 75.7167 192.367 83.8417 197.35 91.425C202.333 98.7917 210.133 108.325 220.75 120.025C229.417 129.342 236.35 137.358 241.55 144.075C246.967 150.792 251.517 158.592 255.2 167.475C259.1 176.142 261.05 185.567 261.05 195.75C261.05 209.617 257.15 222.183 249.35 233.45C241.767 244.717 231.258 253.6 217.825 260.1C204.608 266.6 189.875 269.85 173.625 269.85Z" fill="#CCA152"/>
</g>
<defs>
<filter id="filter0_d_0_1" x="101.05" y="18.625" width="176.675" height="259.225" filterUnits="userSpaceOnUse" color-interpolation-filters="sRGB">
<feFlood flood-opacity="0" result="BackgroundImageFix"/>
<feColorMatrix in="SourceAlpha" type="matrix" values="0 0 0 0 0 0 0 0 0 0 0 0 0 0 0 0 0 0 127 0" result="hardAlpha"/>
<feOffset dy="4"/>
<feGaussianBlur stdDeviation="2"/>
<feComposite in2="hardAlpha" operator="out"/>
<feColorMatrix type="matrix" values="0 0 0 0 0 0 0 0 0 0 0 0 0 0 0 0 0 0 0.25 0"/>
<feBlend mode="normal" in2="BackgroundImageFix" result="effect1_dropShadow_0_1"/>
<feBlend mode="normal" in="SourceGraphic" in2="effect1_dropShadow_0_1" result="shape"/>
</filter>
</defs>
</svg>
